<svg data-v-fde0c5aa="" xmlns="http://www.w3.org/2000/svg" viewBox="0 0 300 300" class="iconLeft"><!----><defs data-v-fde0c5aa=""><!----></defs><rect data-v-fde0c5aa="" fill="transparent" x="0" y="0" width="300px" height="300px" class="logo-background-square"></rect><defs data-v-fde0c5aa=""><!----></defs><g data-v-fde0c5aa="" id="cc4e5429-3716-4b8b-b003-135763d9c52b" fill="white" transform="matrix(2.9405795228401104,0,0,2.9405795228401104,105.4431335245333,122.59379974452382)"><path d="M3.07 7.48L3.07 11.55L3.07 11.55Q3.77 12.12 4.42 12.12L4.42 12.12L4.42 12.12Q5.14 12.12 5.63 11.49L5.63 11.49L5.63 11.49Q6.13 10.85 6.13 9.53L6.13 9.53L6.13 9.53Q6.13 8.20 5.70 7.54L5.70 7.54L5.70 7.54Q5.26 6.87 4.55 6.87L4.55 6.87L4.55 6.87Q3.88 6.87 3.07 7.48L3.07 7.48ZM2.90 6.08L2.98 6.92L2.98 6.92Q3.43 6.43 3.94 6.18L3.94 6.18L3.94 6.18Q4.45 5.94 5.07 5.94L5.07 5.94L5.07 5.94Q5.64 5.94 6.14 6.17L6.14 6.17L6.14 6.17Q6.64 6.40 7 6.85L7 6.85L7 6.85Q7.36 7.29 7.57 7.95L7.57 7.95L7.57 7.95Q7.78 8.60 7.78 9.45L7.78 9.45L7.78 9.45Q7.78 10.28 7.56 10.95L7.56 10.95L7.56 10.95Q7.34 11.62 6.94 12.09L6.94 12.09L6.94 12.09Q6.55 12.56 6.01 12.81L6.01 12.81L6.01 12.81Q5.47 13.06 4.86 13.06L4.86 13.06L4.86 13.06Q3.78 13.06 3.02 12.26L3.02 12.26L3.02 13.05L3.02 13.05Q3.02 13.55 3.03 14.15L3.03 14.15L3.03 14.15Q3.04 14.76 3.05 15.29L3.05 15.29L4.20 15.50L4.20 16.06L0.52 16.06L0.52 15.50L1.50 15.30L1.50 15.30Q1.51 14.77 1.52 14.17L1.52 14.17L1.52 14.17Q1.53 13.57 1.53 13.05L1.53 13.05L1.53 9.16L1.53 9.16Q1.53 8.58 1.51 8.23L1.51 8.23L1.51 8.23Q1.50 7.87 1.48 7.45L1.48 7.45L0.46 7.32L0.46 6.80L2.70 5.94L2.90 6.08ZM10.58 4.59L10.58 4.59L10.58 4.59Q10.14 4.59 9.83 4.31L9.83 4.31L9.83 4.31Q9.52 4.03 9.52 3.58L9.52 3.58L9.52 3.58Q9.52 3.14 9.83 2.86L9.83 2.86L9.83 2.86Q10.14 2.58 10.58 2.58L10.58 2.58L10.58 2.58Q11.03 2.58 11.33 2.86L11.33 2.86L11.33 2.86Q11.63 3.14 11.63 3.58L11.63 3.58L11.63 3.58Q11.63 4.03 11.33 4.31L11.33 4.31L11.33 4.31Q11.03 4.59 10.58 4.59ZM11.40 12.11L12.28 12.29L12.28 12.85L8.86 12.85L8.86 12.29L9.81 12.11L9.81 12.11Q9.83 11.58 9.83 10.98L9.83 10.98L9.83 10.98Q9.83 10.37 9.83 9.91L9.83 9.91L9.83 9.21L9.83 9.21Q9.83 8.64 9.81 8.25L9.81 8.25L9.81 8.25Q9.80 7.87 9.79 7.45L9.79 7.45L8.76 7.32L8.76 6.80L11.21 5.94L11.42 6.08L11.38 8.02L11.38 9.91L11.38 9.91Q11.38 10.37 11.38 10.98L11.38 10.98L11.38 10.98Q11.38 11.59 11.40 12.11L11.40 12.11ZM18.75 10.99L19.17 11.21L19.17 11.21Q18.89 12.11 18.17 12.59L18.17 12.59L18.17 12.59Q17.46 13.06 16.44 13.06L16.44 13.06L16.44 13.06Q15.69 13.06 15.09 12.82L15.09 12.82L15.09 12.82Q14.49 12.57 14.06 12.12L14.06 12.12L14.06 12.12Q13.64 11.66 13.40 11.00L13.40 11.00L13.40 11.00Q13.17 10.35 13.17 9.52L13.17 9.52L13.17 9.52Q13.17 8.68 13.45 8.02L13.45 8.02L13.45 8.02Q13.73 7.35 14.20 6.89L14.20 6.89L14.20 6.89Q14.67 6.43 15.29 6.18L15.29 6.18L15.29 6.18Q15.90 5.94 16.59 5.94L16.59 5.94L16.59 5.94Q17.11 5.94 17.56 6.08L17.56 6.08L17.56 6.08Q18.02 6.23 18.36 6.48L18.36 6.48L18.36 6.48Q18.70 6.73 18.91 7.08L18.91 7.08L18.91 7.08Q19.11 7.42 19.15 7.83L19.15 7.83L19.15 7.83Q19.03 8.43 18.41 8.43L18.41 8.43L18.41 8.43Q17.64 8.43 17.54 7.52L17.54 7.52L17.39 6.68L17.39 6.68Q17.09 6.59 16.80 6.59L16.80 6.59L16.80 6.59Q16.38 6.59 16.02 6.78L16.02 6.78L16.02 6.78Q15.67 6.96 15.39 7.31L15.39 7.31L15.39 7.31Q15.12 7.66 14.97 8.17L14.97 8.17L14.97 8.17Q14.81 8.68 14.81 9.34L14.81 9.34L14.81 9.34Q14.81 10.70 15.41 11.38L15.41 11.38L15.41 11.38Q16.02 12.07 16.94 12.07L16.94 12.07L16.94 12.07Q18.09 12.07 18.75 10.99L18.75 10.99ZM26.40 12.08L27.37 12.29L27.37 12.85L25.09 12.85L23.09 9.49L22.29 10.29L22.29 10.29Q22.29 10.72 22.29 11.19L22.29 11.19L22.29 11.19Q22.30 11.66 22.32 12.11L22.32 12.11L23.30 12.29L23.30 12.85L19.77 12.85L19.77 12.29L20.75 12.11L20.75 12.11Q20.76 11.58 20.77 11.00L20.77 11.00L20.77 11.00Q20.78 10.42 20.78 9.91L20.78 9.91L20.78 4.00L19.67 3.86L19.67 3.33L22.15 2.70L22.34 2.81L22.29 4.80L22.29 9.44L24.79 6.93L23.76 6.78L23.76 6.19L26.96 6.19L26.96 6.78L25.66 6.96L24.18 8.41L26.40 12.08ZM30.25 7.48L30.25 11.55L30.25 11.55Q30.95 12.12 31.61 12.12L31.61 12.12L31.61 12.12Q32.33 12.12 32.82 11.49L32.82 11.49L32.82 11.49Q33.32 10.85 33.32 9.53L33.32 9.53L33.32 9.53Q33.32 8.20 32.89 7.54L32.89 7.54L32.89 7.54Q32.45 6.87 31.74 6.87L31.74 6.87L31.74 6.87Q31.07 6.87 30.25 7.48L30.25 7.48ZM30.09 6.08L30.17 6.92L30.17 6.92Q30.62 6.43 31.13 6.18L31.13 6.18L31.13 6.18Q31.64 5.94 32.26 5.94L32.26 5.94L32.26 5.94Q32.83 5.94 33.33 6.17L33.33 6.17L33.33 6.17Q33.82 6.40 34.19 6.85L34.19 6.85L34.19 6.85Q34.55 7.29 34.76 7.95L34.76 7.95L34.76 7.95Q34.97 8.60 34.97 9.45L34.97 9.45L34.97 9.45Q34.97 10.28 34.75 10.95L34.75 10.95L34.75 10.95Q34.52 11.62 34.13 12.09L34.13 12.09L34.13 12.09Q33.74 12.56 33.20 12.81L33.20 12.81L33.20 12.81Q32.66 13.06 32.05 13.06L32.05 13.06L32.05 13.06Q30.97 13.06 30.21 12.26L30.21 12.26L30.21 13.05L30.21 13.05Q30.21 13.55 30.22 14.15L30.22 14.15L30.22 14.15Q30.23 14.76 30.24 15.29L30.24 15.29L31.39 15.50L31.39 16.06L27.71 16.06L27.71 15.50L28.69 15.30L28.69 15.30Q28.70 14.77 28.71 14.17L28.71 14.17L28.71 14.17Q28.71 13.57 28.71 13.05L28.71 13.05L28.71 9.16L28.71 9.16Q28.71 8.58 28.70 8.23L28.70 8.23L28.70 8.23Q28.69 7.87 28.67 7.45L28.67 7.45L27.65 7.32L27.65 6.80L29.89 5.94L30.09 6.08ZM37.77 4.59L37.77 4.59L37.77 4.59Q37.32 4.59 37.02 4.31L37.02 4.31L37.02 4.31Q36.71 4.03 36.71 3.58L36.71 3.58L36.71 3.58Q36.71 3.14 37.02 2.86L37.02 2.86L37.02 2.86Q37.32 2.58 37.77 2.58L37.77 2.58L37.77 2.58Q38.22 2.58 38.52 2.86L38.52 2.86L38.52 2.86Q38.82 3.14 38.82 3.58L38.82 3.58L38.82 3.58Q38.82 4.03 38.52 4.31L38.52 4.31L38.52 4.31Q38.22 4.59 37.77 4.59ZM38.58 12.11L39.47 12.29L39.47 12.85L36.05 12.85L36.05 12.29L37.00 12.11L37.00 12.11Q37.02 11.58 37.02 10.98L37.02 10.98L37.02 10.98Q37.02 10.37 37.02 9.91L37.02 9.91L37.02 9.21L37.02 9.21Q37.02 8.64 37.00 8.25L37.00 8.25L37.00 8.25Q36.99 7.87 36.97 7.45L36.97 7.45L35.95 7.32L35.95 6.80L38.40 5.94L38.61 6.08L38.57 8.02L38.57 9.91L38.57 9.91Q38.57 10.37 38.57 10.98L38.57 10.98L38.57 10.98Q38.57 11.59 38.58 12.11L38.58 12.11ZM45.93 10.99L46.35 11.21L46.35 11.21Q46.07 12.11 45.36 12.59L45.36 12.59L45.36 12.59Q44.65 13.06 43.62 13.06L43.62 13.06L43.62 13.06Q42.88 13.06 42.28 12.82L42.28 12.82L42.28 12.82Q41.68 12.57 41.25 12.12L41.25 12.12L41.25 12.12Q40.82 11.66 40.59 11.00L40.59 11.00L40.59 11.00Q40.36 10.35 40.36 9.52L40.36 9.52L40.36 9.52Q40.36 8.68 40.64 8.02L40.64 8.02L40.64 8.02Q40.92 7.35 41.39 6.89L41.39 6.89L41.39 6.89Q41.86 6.43 42.48 6.18L42.48 6.18L42.48 6.18Q43.09 5.94 43.78 5.94L43.78 5.94L43.78 5.94Q44.30 5.94 44.75 6.08L44.75 6.08L44.75 6.08Q45.21 6.23 45.55 6.48L45.55 6.48L45.55 6.48Q45.89 6.73 46.09 7.08L46.09 7.08L46.09 7.08Q46.30 7.42 46.34 7.83L46.34 7.83L46.34 7.83Q46.21 8.43 45.60 8.43L45.60 8.43L45.60 8.43Q44.83 8.43 44.73 7.52L44.73 7.52L44.58 6.68L44.58 6.68Q44.28 6.59 43.99 6.59L43.99 6.59L43.99 6.59Q43.57 6.59 43.21 6.78L43.21 6.78L43.21 6.78Q42.85 6.96 42.58 7.31L42.58 7.31L42.58 7.31Q42.31 7.66 42.15 8.17L42.15 8.17L42.15 8.17Q42 8.68 42 9.34L42 9.34L42 9.34Q42 10.70 42.60 11.38L42.60 11.38L42.60 11.38Q43.20 12.07 44.13 12.07L44.13 12.07L44.13 12.07Q45.28 12.07 45.93 10.99L45.93 10.99ZM50.22 8.68L50.68 8.83L50.68 8.83Q51.21 9.03 51.58 9.26L51.58 9.26L51.58 9.26Q51.94 9.49 52.16 9.75L52.16 9.75L52.16 9.75Q52.37 10.01 52.46 10.31L52.46 10.31L52.46 10.31Q52.56 10.61 52.56 10.93L52.56 10.93L52.56 10.93Q52.56 11.38 52.37 11.77L52.37 11.77L52.37 11.77Q52.18 12.17 51.81 12.45L51.81 12.45L51.81 12.45Q51.45 12.74 50.92 12.90L50.92 12.90L50.92 12.90Q50.39 13.06 49.71 13.06L49.71 13.06L49.71 13.06Q49.04 13.06 48.52 12.91L48.52 12.91L48.52 12.91Q47.99 12.75 47.45 12.45L47.45 12.45L47.42 10.88L48.36 10.88L48.57 12.10L48.57 12.10Q49.13 12.38 49.73 12.38L49.73 12.38L49.73 12.38Q50.47 12.38 50.81 12.12L50.81 12.12L50.81 12.12Q51.16 11.86 51.16 11.38L51.16 11.38L51.16 11.38Q51.16 10.98 50.86 10.72L50.86 10.72L50.86 10.72Q50.57 10.47 49.83 10.19L49.83 10.19L49.18 9.95L49.18 9.95Q48.37 9.63 47.93 9.16L47.93 9.16L47.93 9.16Q47.49 8.68 47.49 7.97L47.49 7.97L47.49 7.97Q47.49 7.53 47.66 7.16L47.66 7.16L47.66 7.16Q47.84 6.79 48.17 6.52L48.17 6.52L48.17 6.52Q48.51 6.24 49.00 6.09L49.00 6.09L49.00 6.09Q49.49 5.94 50.13 5.94L50.13 5.94L50.13 5.94Q50.74 5.94 51.21 6.08L51.21 6.08L51.21 6.08Q51.69 6.22 52.18 6.48L52.18 6.48L52.11 7.97L51.21 7.97L50.99 6.82L50.99 6.82Q50.79 6.72 50.57 6.66L50.57 6.66L50.57 6.66Q50.34 6.61 50.08 6.61L50.08 6.61L50.08 6.61Q49.50 6.61 49.19 6.86L49.19 6.86L49.19 6.86Q48.87 7.11 48.87 7.56L48.87 7.56L48.87 7.56Q48.87 7.92 49.15 8.16L49.15 8.16L49.15 8.16Q49.43 8.40 50.22 8.68L50.22 8.68Z"></path></g><defs data-v-fde0c5aa=""><linearGradient data-v-fde0c5aa="" gradientTransform="rotate(25)" id="6b043b47-3223-4f4e-ac70-eb6fe168fa48" x1="0%" y1="0%" x2="100%" y2="0%"><stop data-v-fde0c5aa="" offset="0%" stop-color="white" stop-opacity="1"></stop><stop data-v-fde0c5aa="" offset="100%" stop-color="white" stop-opacity="1"></stop></linearGradient></defs><g data-v-fde0c5aa="" id="6f794966-2da1-4ab4-8317-51d50ef834a5" stroke="none" fill="url(#6b043b47-3223-4f4e-ac70-eb6fe168fa48)" transform="matrix(1.1325431606226917,0,0,1.1325431606226917,21.59617363988126,104.69827357509233)"><path d="M16.25 53.027V55c0 6.203 5.047 11.25 11.25 11.25h25c6.203 0 11.25-5.047 11.25-11.25v-1.973h-47.5zM40 62.637c-1.652 0-2.997-1.345-2.997-2.998s1.345-2.998 2.997-2.998 2.996 1.345 2.996 2.998A3 3 0 0 1 40 62.637zM63.75 49.027V25c0-6.203-5.047-11.25-11.25-11.25h-25c-6.203 0-11.25 5.047-11.25 11.25v24.027h47.5zM30.531 35.754L42.364 23.92a.999.999 0 1 1 1.414 1.414L31.945 37.168a.997.997 0 0 1-1.414 0 1 1 0 0 1 0-1.414zM29 42.947l20.585-20.586a.999.999 0 1 1 1.414 1.414L30.414 44.361a.997.997 0 0 1-1.414 0 .999.999 0 0 1 0-1.414z"></path></g><!----></svg>